# xmcd CD database file
#
# Track frame offsets:
#	150
#	9373
#	36731
#	52184
#	69909
#	97393
#	112308
#	134246
#	152861
#	170859
#	189047
#	201475
#
# Disc length: 2907 seconds
#
# Revision: 0
# Processed by: cddbd v1.5.2PL0 Copyright (c) Steve Scherf et al.
# Submitted via: CDex 1.81
#
DISCID=c10b590c
DTITLE=markusphilippe - more saxnbass
DYEAR=2015
DGENRE=Jazz
TTITLE0=james bond theme
TTITLE1=don't know why
TTITLE2=move over
TTITLE3=a brisa do coracao
TTITLE4=georgia on my mind
TTITLE5=bluie in green
TTITLE6=all blues
TTITLE7=I think ti's going to rain today
TTITLE8=quizas, quizas, quizas
TTITLE9=strange fruit
TTITLE10=take five
TTITLE11=the wind cries mary
EXTD=YEAR: 2015
EXTT0=
EXTT1=
EXTT2=
EXTT3=
EXTT4=
EXTT5=
EXTT6=
EXTT7=
EXTT8=
EXTT9=
EXTT10=
EXTT11=
PLAYORDER=
